<svg fill="none" height="24" viewBox="0 0 25 24" width="25" xmlns="http://www.w3.org/2000/svg"><path d="m22.4839 7.28471-1.9712 8.16909c-.0714.2856-.3286.4856-.6285.4856h-11.3276c-.27141 0-.52853-.1714-.61423-.4428l-3.09973-9.5258-1.9284-.72836c-.32854-.12854-.49995-.49986-.37139-.82834s.49995-.49986.8285-.37132l2.21408.84262c.1857.0714.32855.21422.38568.39988l3.05688 9.38302h10.37051l1.657-6.89802h-12.94172c-.35711 0-.6428-.28563-.6428-.64267s.28569-.64267.6428-.64267h13.74162c.2 0 .3857.08569.5.24279.1285.17137.1714.37132.1285.55698zm-3.4711 4.58439c.3571 0 .6428-.2856.6428-.6427 0-.357-.2857-.6426-.6428-.6426h-9.75626c-.35711 0-.6428.2856-.6428.6426 0 .3571.28569.6427.6428.6427zm-7.6565 6.8695c0 1.0425-.857 1.8994-1.89978 1.8994-1.04277 0-1.89983-.8569-1.89983-1.8994 0-1.0426.85706-1.8995 1.89983-1.8995 1.05708 0 1.89978.8569 1.89978 1.8995zm-1.2713 0c0-.3428-.28565-.6284-.62848-.6284s-.62852.2856-.62852.6284c0 .3427.28569.6284.62852.6284s.62848-.2857.62848-.6284zm10.2134 0c0 1.0425-.8571 1.8994-1.8998 1.8994-1.0428 0-1.8999-.8569-1.8999-1.8994 0-1.0426.8571-1.8995 1.8999-1.8995 1.0427 0 1.8998.8569 1.8998 1.8995zm-1.2856 0c0-.3428-.2857-.6284-.6285-.6284s-.6285.2856-.6285.6284c0 .3427.2857.6284.6285.6284.3571 0 .6285-.2857.6285-.6284z" fill="#fff"/></svg>